<?xml version="1.0" encoding="UTF-8"?><svg id="Layer_2" xmlns="http://www.w3.org/2000/svg" xmlns:xlink="http://www.w3.org/1999/xlink" viewBox="0 0 298.16 49.18"><defs><style>.cls-1{fill:none;}.cls-2{clip-path:url(#clippath);}.cls-3{fill:#fdfced;}.cls-4{clip-path:url(#clippath-1);}.cls-5{clip-path:url(#clippath-2);}</style><clipPath id="clippath"><rect class="cls-1" width="298.16" height="49.18"/></clipPath><clipPath id="clippath-1"><rect class="cls-1" width="298.16" height="49.18"/></clipPath><clipPath id="clippath-2"><rect class="cls-1" width="298.16" height="49.18"/></clipPath></defs><g id="Layer_1-2"><g><polygon class="cls-3" points="27.31 9.65 27.31 11.68 19.08 11.68 19.08 35.59 16.9 35.59 16.9 11.68 8.66 11.68 8.66 9.65 27.31 9.65"/><polygon class="cls-3" points="32.81 21.11 45.66 21.11 45.66 9.65 47.84 9.65 47.84 35.59 45.66 35.59 45.66 23.14 32.81 23.14 32.81 35.59 30.63 35.59 30.63 9.65 32.81 9.65 32.81 21.11"/><polygon class="cls-3" points="67.17 9.65 67.17 11.68 54.09 11.68 54.09 21.15 66.04 21.15 66.04 23.18 54.09 23.18 54.09 33.56 67.17 33.56 67.17 35.59 51.91 35.59 51.91 9.65 67.17 9.65"/><polygon class="cls-3" points="84.54 22.81 91.53 9.65 97.35 9.65 97.35 35.59 91.49 35.59 91.49 20.93 86.15 31.3 82.81 31.3 77.58 21.04 77.58 35.59 71.72 35.59 71.72 9.65 77.51 9.65 84.54 22.81"/><polygon class="cls-3" points="117.27 9.65 117.27 14.84 107.12 14.84 107.12 19.57 116.15 19.57 116.15 24.76 107.12 24.76 107.12 30.4 117.27 30.4 117.27 35.59 100.88 35.59 100.88 9.65 117.27 9.65"/><g class="cls-2"><path class="cls-3" d="M129.52,20.59c2.52,0,4.32-.34,4.32-2.78s-1.8-2.97-4.32-2.97h-2.78v5.75h2.78Zm4.77,15l-4.32-9.81h-3.23v9.81h-6.24V9.65h9.77c5.98,0,9.81,2.74,9.81,8.16,0,3.38-1.5,5.68-4.13,6.88l5.19,10.9h-6.84Z"/><path class="cls-3" d="M156.3,17.66c-.26-1.65-1.39-3.19-3.61-3.19-2.59,0-3.98,1.88-3.98,6.13v4.06c0,4.06,1.35,6.13,3.98,6.13,2.22,0,3.23-1.13,3.61-3.2h5.94c-.9,5.83-4.06,8.38-9.55,8.38-5.9,0-10.22-3.57-10.22-11.31v-4.06c0-7.82,4.32-11.31,10.22-11.31,5.15,0,8.68,2.74,9.55,8.38h-5.94Z"/></g><polygon class="cls-3" points="171.64 19.57 179.61 19.57 179.61 9.65 185.85 9.65 185.85 35.59 179.61 35.59 179.61 24.76 171.64 24.76 171.64 35.59 165.4 35.59 165.4 9.65 171.64 9.65 171.64 19.57"/><g class="cls-4"><path class="cls-3" d="M205.59,14.91c-1.35-1.99-3.16-3.46-6.73-3.46s-5.94,1.47-5.94,4.66c0,3.72,2.97,4.66,6.73,5.49,4.89,1.05,8.12,2.56,8.12,7.44,0,3.31-2.33,6.77-8.53,6.77-4.13,0-7.14-1.43-9.06-4.25l1.77-1.24c1.62,2.03,3.42,3.46,7.29,3.46,4.62,0,6.35-2.14,6.35-4.66,0-3.12-1.81-4.62-6.69-5.56-4.85-.94-8.16-2.82-8.16-7.44,0-3.65,2.37-6.69,8.2-6.69,4.02,0,6.58,1.39,8.38,4.25l-1.73,1.24Z"/></g><polygon class="cls-3" points="228.63 9.65 228.63 11.68 220.4 11.68 220.4 35.59 218.22 35.59 218.22 11.68 209.99 11.68 209.99 9.65 228.63 9.65"/><g class="cls-5"><path class="cls-3" d="M232.12,24.16c0,7.03,2.78,9.62,7.03,9.62s7.03-2.59,7.03-9.62v-3.08c0-6.99-2.78-9.62-7.03-9.62s-7.03,2.63-7.03,9.62v3.08Zm7.03,11.65c-5.56,0-9.21-3.46-9.21-11.65v-3.08c0-8.16,3.65-11.65,9.21-11.65s9.21,3.5,9.21,11.65v3.08c0,8.19-3.65,11.65-9.21,11.65"/><path class="cls-3" d="M260.37,22.54c4.55,0,7.07-1.54,7.07-5.41s-2.52-5.45-7.07-5.45h-5.9v10.86h5.9Zm7.48,13.04l-5.75-11.09c-.56,.08-1.13,.08-1.73,.08h-5.9v11.01h-2.18V9.65h8.08c5.86,0,9.25,2.56,9.25,7.48,0,3.68-1.92,6.05-5.34,6.99l6.01,11.46h-2.44Z"/></g><polygon class="cls-3" points="289.49 9.65 289.49 11.68 276.41 11.68 276.41 21.15 288.36 21.15 288.36 23.18 276.41 23.18 276.41 33.56 289.49 33.56 289.49 35.59 274.23 35.59 274.23 9.65 289.49 9.65"/><path class="cls-3" d="M1.79,1.8H296.36V43.44H1.79V1.8ZM0,49.18H298.16V0H0V49.18Z"/></g></g></svg>